<svg width="116" height="100" viewBox="0 0 116 100" fill="none" xmlns="http://www.w3.org/2000/svg">
    <ellipse cx="65.8578" cy="50" rx="50.0004" ry="50" fill="#EDFF9C" />
    <g clip-path="url(#clip0_31310_49587)">
        <rect x="17.1523" y="18.332" width="66.6667" height="62.5" fill="#BBD8FF" />
        <path d="M85.4961 19L14.9961 68L32.4961 80H85.4961V19Z" fill="#AACEFF" />
        <path
            d="M83.8197 74.582C88.403 74.582 92.1113 70.832 92.1113 66.2487L92.153 20.4154C92.153 15.832 88.403 12.082 83.8197 12.082H17.153C12.5697 12.082 8.81966 15.832 8.81966 20.4154V66.2487C8.81966 70.832 12.5697 74.582 17.153 74.582H0.486328C0.486328 79.1654 4.23633 82.9154 8.81966 82.9154H92.153C96.7363 82.9154 100.486 79.1654 100.486 74.582H83.8197ZM17.153 20.4154H83.8197V66.2487H17.153V20.4154ZM50.4863 78.7487C48.1947 78.7487 46.3197 76.8737 46.3197 74.582C46.3197 72.2904 48.1947 70.4154 50.4863 70.4154C52.778 70.4154 54.653 72.2904 54.653 74.582C54.653 76.8737 52.778 78.7487 50.4863 78.7487Z"
            fill="#1A4E92" />
    </g>
    <g clip-path="url(#clip1_31310_49587)">
        <circle cx="87.5" cy="64.5" r="21.5" fill="#AACEFF" />
        <path
            d="M96.125 30.3125H78.875V36.0625H96.125V30.3125ZM84.625 67.6875H90.375V50.4375H84.625V67.6875ZM107.711 48.6838L111.794 44.6012C110.558 43.135 109.206 41.755 107.74 40.5475L103.658 44.63C99.2013 41.065 93.595 38.9375 87.5 38.9375C73.2113 38.9375 61.625 50.5238 61.625 64.8125C61.625 79.1012 73.1825 90.6875 87.5 90.6875C101.818 90.6875 113.375 79.1012 113.375 64.8125C113.375 58.7175 111.248 53.1112 107.711 48.6838ZM87.5 84.9375C76.3738 84.9375 67.375 75.9388 67.375 64.8125C67.375 53.6863 76.3738 44.6875 87.5 44.6875C98.6263 44.6875 107.625 53.6863 107.625 64.8125C107.625 75.9388 98.6263 84.9375 87.5 84.9375Z"
            fill="#3D8AF0" />
    </g>
    <defs>
        <clipPath id="clip0_31310_49587">
            <rect width="101" height="71" fill="white" transform="translate(0.140625 12)" />
        </clipPath>
        <clipPath id="clip1_31310_49587">
            <rect width="53" height="61" fill="white" transform="translate(61 30)" />
        </clipPath>
    </defs>
</svg>