<svg width="108" height="100" viewBox="0 0 108 100" fill="none" xmlns="http://www.w3.org/2000/svg">
    <ellipse cx="50.2485" cy="50" rx="50.0004" ry="50" fill="#EDFF9C" />
    <g clip-path="url(#clip0_31310_49619)">
        <path d="M16.4668 18H72.4668V33.5H90.9668L103.967 49.5L72.4668 64H16.4668V18Z"
            fill="#BBD8FF" />
        <path d="M92.4668 35L79.4668 48L88.4668 52.5L101.967 48L92.4668 35Z" fill="#AACEFF" />
        <path
            d="M36.9668 61.5L24.9668 64V77.5H38.9668V67.5H76.4668L79.9668 78.5L92.9668 73L89.9668 62.5L36.9668 61.5Z"
            fill="#AACEFF" />
        <path
            d="M92.9765 29.9262H79.7985V12.3555H18.301C13.469 12.3555 9.51562 16.3089 9.51562 21.1408V69.4603H18.301C18.301 76.7521 24.1872 82.6383 31.479 82.6383C38.7709 82.6383 44.657 76.7521 44.657 69.4603H71.0131C71.0131 76.7521 76.8993 82.6383 84.1911 82.6383C91.483 82.6383 97.3692 76.7521 97.3692 69.4603H106.155V47.4969L92.9765 29.9262ZM90.7801 36.5152L99.3898 47.4969H79.7985V36.5152H90.7801ZM31.479 73.8529C29.063 73.8529 27.0863 71.8762 27.0863 69.4603C27.0863 67.0443 29.063 65.0676 31.479 65.0676C33.895 65.0676 35.8717 67.0443 35.8717 69.4603C35.8717 71.8762 33.895 73.8529 31.479 73.8529ZM41.2308 60.6749C38.8148 57.9954 35.3885 56.2822 31.479 56.2822C27.5695 56.2822 24.1432 57.9954 21.7273 60.6749H18.301V21.1408H71.0131V60.6749H41.2308ZM84.1911 73.8529C81.7752 73.8529 79.7985 71.8762 79.7985 69.4603C79.7985 67.0443 81.7752 65.0676 84.1911 65.0676C86.6071 65.0676 88.5838 67.0443 88.5838 69.4603C88.5838 71.8762 86.6071 73.8529 84.1911 73.8529Z"
            fill="#1A4E92" />
    </g>
    <defs>
        <clipPath id="clip0_31310_49619">
            <rect width="97.8939" height="71" fill="white" transform="translate(9.85742 12)" />
        </clipPath>
    </defs>
</svg>