<svg width="120" height="100" viewBox="0 0 120 100" fill="none" xmlns="http://www.w3.org/2000/svg">
<ellipse cx="69.5981" cy="50" rx="50.0004" ry="50" fill="#EDFF9C"/>
<path d="M4.01172 32.9137L11.2305 40.4137C29.1691 21.7762 58.2606 21.7762 76.1992 40.4137L83.418 32.9137C61.5091 10.1512 25.9567 10.1512 4.01172 32.9137ZM32.8867 62.9137L43.7148 74.1637L54.543 62.9137C48.5875 56.6887 38.8783 56.6887 32.8867 62.9137ZM18.4492 47.9137L25.668 55.4137C35.6298 45.0637 51.7998 45.0637 61.7617 55.4137L68.9805 47.9137C55.0483 33.4387 32.4175 33.4387 18.4492 47.9137Z" fill="#1A4E92"/>
<path d="M106.516 62.9961C106.516 74.1799 105.016 81.0547 74.2656 81.0547C56.2656 83.9961 54.0156 71.9885 54.0156 60.8047C54.0156 49.6209 68.3319 37.4961 79.5156 37.4961C93.3806 37.4961 105.766 49.4961 106.516 62.9961Z" fill="#AACEFF"/>
<path d="M103.61 48.1508L99.9202 53.7008C101.7 57.25 102.571 61.1853 102.456 65.154C102.341 69.1226 101.243 73.0008 99.2602 76.4408H57.6802C55.1037 71.9711 54.0361 66.7902 54.6357 61.666C55.2352 56.5418 57.47 51.7473 61.0087 47.9931C64.5474 44.2389 69.2016 41.7249 74.2815 40.8239C79.3613 39.9228 84.5962 40.6827 89.2102 42.9908L94.7602 39.3008C89.1097 35.6774 82.4072 34.0538 75.7249 34.6896C69.0426 35.3254 62.7666 38.1839 57.9007 42.8078C53.0349 47.4318 49.8603 53.554 48.8849 60.1952C47.9095 66.8365 49.1895 73.613 52.5202 79.4408C53.0438 80.3476 53.7955 81.1017 54.7007 81.6279C55.606 82.1542 56.6332 82.4345 57.6802 82.4408H99.2302C100.288 82.445 101.327 82.1697 102.244 81.6429C103.16 81.1161 103.922 80.3564 104.45 79.4408C107.214 74.6526 108.602 69.1936 108.459 63.6667C108.316 58.1397 106.648 52.7598 103.64 48.1208L103.61 48.1508Z" fill="#3D8AF0"/>
<path d="M74.2402 68.6708C74.7975 69.2287 75.4592 69.6712 76.1876 69.9732C76.916 70.2751 77.6968 70.4305 78.4852 70.4305C79.2737 70.4305 80.0545 70.2751 80.7829 69.9732C81.5113 69.6712 82.173 69.2287 82.7302 68.6708L99.7102 43.2008L74.2402 60.1808C73.6824 60.738 73.2398 61.3998 72.9379 62.1282C72.6359 62.8565 72.4805 63.6373 72.4805 64.4258C72.4805 65.2143 72.6359 65.995 72.9379 66.7234C73.2398 67.4518 73.6824 68.1136 74.2402 68.6708Z" fill="#3D8AF0"/>
</svg>
